# This file uses centimeters as units for non-parametric coordinates.

mtllib LovelyChair.mtl
g default
v -0.880275 3.031245 -0.210158
v -0.880275 2.922855 -0.767588
v -1.861199 5.743299 -0.736620
v -1.861199 5.634909 -1.294824
v -1.481836 6.426151 -0.869784
v -1.481836 6.317761 -1.427214
v -1.448545 2.922855 -0.767588
v -1.448545 3.031245 -0.210158
v -2.701989 5.936851 -1.352890
v -2.701989 6.045241 -0.795460
v -1.629710 7.437269 -1.644767
v -1.629710 7.545657 -1.087337
v -1.629710 7.437269 -1.644767
v -1.629710 7.545657 -1.087337
v 0.000000 6.670800 -1.496118
v 0.000000 6.779191 -0.937914
v 1.629710 7.545657 -1.087337
v -1.775262 -0.026107 3.267589
v -1.206992 -0.026107 3.267589
v -1.711002 2.890338 3.203330
v -1.271251 2.890338 3.203330
v -1.206992 -0.026107 2.699320
v -1.775262 -0.026107 2.699320
v -1.271251 2.890338 2.764353
v -1.711002 2.890338 2.764353
v -1.206992 -0.026107 3.267589
v -1.206992 -0.026107 2.699320
v -1.271251 2.890338 3.203330
v -1.271251 2.890338 2.764353
v -1.775262 -0.026107 2.699320
v -1.775262 -0.026107 3.267589
v -1.711002 2.890338 2.764353
v -1.711002 2.890338 3.203330
v 0.880275 3.031245 -0.210158
v 1.861199 5.743299 -0.736620
v 0.880275 2.922855 -0.767588
v 1.861199 5.634909 -1.294824
v 1.448545 2.922855 -0.767588
v 2.701989 5.936851 -1.352890
v 1.448545 3.031245 -0.210158
v 2.701989 6.045241 -0.795460
v 1.629710 7.545657 -1.087337
v 2.701989 6.045241 -0.795460
v 1.629710 7.437269 -1.644767
v 2.701989 5.936851 -1.352890
v 1.481836 6.317761 -1.427214
v 1.861199 5.634909 -1.294824
v 1.481836 6.426151 -0.869784
v 1.861199 5.743299 -0.736620
v 1.206217 -0.026107 3.267589
v 1.774487 -0.026107 3.267589
v 1.271251 2.890338 3.203330
v 1.710228 2.890338 3.203330
v 1.774487 -0.026107 2.699320
v 1.206217 -0.026107 2.699320
v 1.710228 2.890338 2.764353
v 1.271251 2.890338 2.764353
v 1.774487 -0.026107 3.267589
v 1.774487 -0.026107 2.699320
v 1.710228 2.890338 3.203330
v 1.710228 2.890338 2.764353
v 1.206217 -0.026107 2.699320
v 1.206217 -0.026107 3.267589
v 1.271251 2.890338 2.764353
v 1.271251 2.890338 3.203330
v -1.775262 -0.026107 0.064687
v -1.206992 -0.026107 0.064687
v -1.711002 2.890338 0.000427
v -1.271251 2.890338 0.000427
v -1.206992 -0.026107 -0.503583
v -1.775262 -0.026107 -0.503583
v -1.271251 2.890338 -0.438549
v -1.711002 2.890338 -0.438549
v -1.206992 -0.026107 0.064687
v -1.206992 -0.026107 -0.503583
v -1.271251 2.890338 0.000427
v -1.271251 2.890338 -0.438549
v -1.775262 -0.026107 -0.503583
v -1.775262 -0.026107 0.064687
v -1.711002 2.890338 -0.438549
v -1.711002 2.890338 0.000427
v 1.206217 -0.026107 0.064687
v 1.774487 -0.026107 0.064687
v 1.271251 2.890338 0.000427
v 1.710228 2.890338 0.000427
v 1.774487 -0.026107 -0.503583
v 1.206217 -0.026107 -0.503583
v 1.710228 2.890338 -0.438549
v 1.271251 2.890338 -0.438549
v 1.774487 -0.026107 0.064687
v 1.774487 -0.026107 -0.503583
v 1.710228 2.890338 0.000427
v 1.710228 2.890338 -0.438549
v 1.206217 -0.026107 -0.503583
v 1.206217 -0.026107 0.064687
v 1.271251 2.890338 -0.438549
v 1.271251 2.890338 0.000427
v 1.629710 7.437269 -1.644767
v 0.000000 6.670800 -1.496118
v 1.629710 7.545657 -1.087337
v -0.880275 2.922855 -0.767588
v -1.448545 2.922855 -0.767588
v -1.861199 5.634909 -1.294824
v -2.701989 5.936851 -1.352890
v -1.481836 6.317761 -1.427214
v -1.629710 7.437269 -1.644767
v 0.000000 6.670800 -1.496118
v 0.880275 3.031245 -0.210158
v 1.448545 3.031245 -0.210158
v 1.861199 5.743299 -0.736620
v 2.701989 6.045241 -0.795460
v 1.481836 6.426151 -0.869784
v 1.629710 7.545657 -1.087337
v 0.000000 6.779191 -0.937914
v -1.629710 7.545657 -1.087337
v -1.481836 6.426151 -0.869784
v 0.000000 6.779191 -0.937914
v 0.000000 5.910527 -0.769137
v 1.481836 6.426151 -0.869784
v -0.880275 3.031245 -0.210158
v -1.861199 5.743299 -0.736620
v -1.448545 3.031245 -0.210158
v -2.701989 6.045241 -0.795460
v 0.880275 2.922855 -0.767588
v 1.861199 5.634909 -1.294824
v 1.448545 2.922855 -0.767588
v 2.701989 5.936851 -1.352890
v -1.629710 7.545657 -1.087337
v -2.701989 6.045241 -0.795460
v -1.481836 6.426151 -0.869784
v -1.861199 5.743299 -0.736620
v -1.481836 6.317761 -1.427214
v 0.000000 6.670800 -1.496118
v 0.000000 5.802140 -1.327341
v 1.481836 6.317761 -1.427214
v 1.629710 7.437269 -1.644767
v 2.701989 5.936851 -1.352890
v 1.481836 6.317761 -1.427214
v 1.861199 5.634909 -1.294824
v 1.629710 7.437269 -1.644767
v 1.481836 6.317761 -1.427214
v 0.000000 6.670800 -1.496118
v 2.093461 3.139634 3.595854
v -2.096558 3.139634 3.595854
v 1.989717 2.722335 3.485916
v -1.992040 2.722335 3.485916
v -2.096558 3.139634 3.595854
v 2.093461 3.139634 3.595854
v -2.096558 3.139634 -0.897655
v 2.093461 3.139634 -0.897655
v -1.992040 2.722335 -0.785394
v 1.989717 2.722335 -0.785394
v -1.888296 2.305811 -0.673909
v 1.885199 2.305811 -0.673909
v 2.093461 3.139634 -0.897655
v 2.093461 3.139634 3.595854
v 1.989717 2.722335 -0.785394
v 1.989717 2.722335 3.485916
v -1.992040 2.722335 -0.785394
v -1.888296 2.305811 -0.673909
v -1.992040 2.722335 3.485916
v -1.888296 2.305811 3.375978
v 1.989717 2.722335 3.485916
v -1.992040 2.722335 3.485916
v 1.885199 2.305811 3.375978
v -1.888296 2.305811 3.375978
v -2.096558 3.139634 -0.897655
v 2.093461 3.139634 -0.897655
v -1.992040 2.722335 -0.785394
v 1.989717 2.722335 -0.785394
v 1.989717 2.722335 -0.785394
v 1.989717 2.722335 3.485916
v 1.885199 2.305811 -0.673909
v 1.885199 2.305811 3.375978
v -2.096558 3.139634 -0.897655
v -1.992040 2.722335 -0.785394
v -2.096558 3.139634 3.595854
v -1.992040 2.722335 3.485916
v -1.850359 3.005696 -0.292224
v -0.001548 3.005696 -0.292224
v -1.850359 6.406795 -0.913914
v -0.001548 6.406795 -0.913914
v 1.846489 6.406795 -0.913914
v -0.001548 6.406795 -0.913914
v 1.846489 3.005696 -0.292224
v -0.001548 3.005696 -0.292224
vt 0.787109 -0.840820
vt 0.955078 -0.840820
vt 0.787109 -0.259766
vt 0.955078 -0.259766
vt 0.787109 -0.114258
vt 0.955078 -0.114258
vt 0.529297 -0.836914
vt 0.732422 -0.836914
vt 0.529297 -0.459961
vt 0.732422 -0.459961
vt 0.529297 -0.326172
vt 0.732422 -0.326172
vt 0.529297 -0.326172
vt 0.732422 -0.326172
vt 0.529297 -0.126953
vt 0.732422 -0.126953
vt 0.732422 -0.326172
vt 0.031250 -0.959961
vt 0.474609 -0.959961
vt 0.082031 -0.040039
vt 0.423828 -0.040039
vt 0.474609 -0.959961
vt 0.031250 -0.959961
vt 0.423828 -0.040039
vt 0.082031 -0.040039
vt 0.031250 -0.959961
vt 0.474609 -0.959961
vt 0.082031 -0.040039
vt 0.423828 -0.040039
vt 0.474609 -0.959961
vt 0.031250 -0.959961
vt 0.423828 -0.040039
vt 0.082031 -0.040039
vt 0.787109 -0.840820
vt 0.787109 -0.259766
vt 0.955078 -0.840820
vt 0.955078 -0.259766
vt 0.529297 -0.836914
vt 0.529297 -0.459961
vt 0.732422 -0.836914
vt 0.732422 -0.459961
vt 0.732422 -0.326172
vt 0.732422 -0.459961
vt 0.529297 -0.326172
vt 0.529297 -0.459961
vt 0.955078 -0.114258
vt 0.955078 -0.259766
vt 0.787109 -0.114258
vt 0.787109 -0.259766
vt 0.031250 -0.959961
vt 0.474609 -0.959961
vt 0.082031 -0.040039
vt 0.423828 -0.040039
vt 0.474609 -0.959961
vt 0.031250 -0.959961
vt 0.423828 -0.040039
vt 0.082031 -0.040039
vt 0.031250 -0.959961
vt 0.474609 -0.959961
vt 0.082031 -0.040039
vt 0.423828 -0.040039
vt 0.474609 -0.959961
vt 0.031250 -0.959961
vt 0.423828 -0.040039
vt 0.082031 -0.040039
vt 0.031250 -0.959961
vt 0.474609 -0.959961
vt 0.082031 -0.040039
vt 0.423828 -0.040039
vt 0.474609 -0.959961
vt 0.031250 -0.959961
vt 0.423828 -0.040039
vt 0.082031 -0.040039
vt 0.031250 -0.959961
vt 0.474609 -0.959961
vt 0.082031 -0.040039
vt 0.423828 -0.040039
vt 0.474609 -0.959961
vt 0.031250 -0.959961
vt 0.423828 -0.040039
vt 0.082031 -0.040039
vt 0.031250 -0.959961
vt 0.474609 -0.959961
vt 0.082031 -0.040039
vt 0.423828 -0.040039
vt 0.474609 -0.959961
vt 0.031250 -0.959961
vt 0.423828 -0.040039
vt 0.082031 -0.040039
vt 0.031250 -0.959961
vt 0.474609 -0.959961
vt 0.082031 -0.040039
vt 0.423828 -0.040039
vt 0.474609 -0.959961
vt 0.031250 -0.959961
vt 0.423828 -0.040039
vt 0.082031 -0.040039
vt 0.529297 -0.326172
vt 0.529297 -0.126953
vt 0.732422 -0.326172
vt 0.644531 -0.961914
vt 0.480469 -0.961914
vt 0.361328 -0.405273
vt 0.121094 -0.343750
vt 0.470703 -0.265625
vt 0.427734 -0.035156
vt 0.896484 -0.192383
vt 0.644531 -0.961914
vt 0.480469 -0.961914
vt 0.361328 -0.405273
vt 0.121094 -0.343750
vt 0.470703 -0.265625
vt 0.427734 -0.035156
vt 0.896484 -0.192383
vt 0.427734 -0.035156
vt 0.470703 -0.265625
vt 0.896484 -0.192383
vt 0.896484 -0.371094
vt 0.470703 -0.265625
vt 0.644531 -0.961914
vt 0.361328 -0.405273
vt 0.480469 -0.961914
vt 0.121094 -0.343750
vt 0.644531 -0.961914
vt 0.361328 -0.405273
vt 0.480469 -0.961914
vt 0.121094 -0.343750
vt 0.427734 -0.035156
vt 0.121094 -0.343750
vt 0.470703 -0.265625
vt 0.361328 -0.405273
vt 0.470703 -0.265625
vt 0.896484 -0.192383
vt 0.896484 -0.371094
vt 0.470703 -0.265625
vt 0.427734 -0.035156
vt 0.121094 -0.343750
vt 0.470703 -0.265625
vt 0.361328 -0.405273
vt 0.427734 -0.035156
vt 0.470703 -0.265625
vt 0.896484 -0.192383
vt 0.848633 -0.875000
vt 0.045898 -0.875000
vt 0.828125 -0.961914
vt 0.066406 -0.961914
vt 0.118164 -0.810547
vt 0.870117 -0.810547
vt 0.118164 -0.019531
vt 0.870117 -0.019531
vt 0.895508 -0.835938
vt 0.895508 -0.036133
vt 0.983398 -0.814453
vt 0.983398 -0.056641
vt 0.877930 -0.875000
vt 0.016602 -0.875000
vt 0.856445 -0.961914
vt 0.038086 -0.961914
vt 0.895508 -0.006836
vt 0.983398 -0.029297
vt 0.895508 -0.865234
vt 0.983398 -0.842773
vt 0.895508 -0.036133
vt 0.895508 -0.835938
vt 0.983398 -0.056641
vt 0.983398 -0.814453
vt 0.045898 -0.875000
vt 0.848633 -0.875000
vt 0.066406 -0.961914
vt 0.828125 -0.961914
vt 0.895508 -0.006836
vt 0.895508 -0.865234
vt 0.983398 -0.029297
vt 0.983398 -0.842773
vt 0.877930 -0.875000
vt 0.856445 -0.961914
vt 0.016602 -0.875000
vt 0.038086 -0.961914
vt 0.027344 -0.984375
vt 0.978516 -0.984375
vt 0.027344 -0.015625
vt 0.978516 -0.015625
vt 0.027344 -0.015625
vt 0.978516 -0.015625
vt 0.027344 -0.984375
vt 0.978516 -0.984375
vn 0.942361 0.328445 -0.063865
vn 0.942361 0.328445 -0.063865
vn 0.942361 0.328445 -0.063865
vn 0.942318 0.328443 -0.064516
vn 0.974405 -0.220657 0.042960
vn 0.997569 0.068327 -0.013665
vn 0.997569 0.068327 -0.013665
vn 0.974405 -0.220657 0.042960
vn 0.877377 -0.470930 0.091841
vn 0.974405 -0.220657 0.042960
vn 0.877377 -0.470930 0.091841
vn 0.877377 -0.470930 0.091841
vn -0.925780 -0.371093 0.072265
vn -0.925780 -0.371093 0.072265
vn -0.997701 -0.066383 0.013667
vn -0.925780 -0.371093 0.072265
vn -0.957461 0.283330 -0.054712
vn -0.997701 -0.066383 0.013667
vn -0.997701 -0.066383 0.013667
vn -0.957461 0.283330 -0.054712
vn -0.818244 0.564373 -0.109360
vn -0.957461 0.283330 -0.054712
vn -0.818244 0.564373 -0.109360
vn -0.818244 0.564373 -0.109360
vn 0.431929 0.885357 -0.171990
vn 0.431929 0.885357 -0.171990
vn 0.000000 0.981544 -0.191235
vn 0.431929 0.885357 -0.171990
vn 0.000000 0.981544 -0.191235
vn 0.000000 0.981544 -0.191235
vn 0.000000 0.981544 -0.191235
vn 0.000000 0.981544 -0.191235
vn -0.431929 0.885357 -0.171990
vn 0.000000 0.021521 0.999768
vn 0.000000 0.021521 0.999768
vn 0.000000 0.021521 0.999768
vn 0.000000 0.021521 0.999768
vn 0.000000 0.021521 0.999768
vn 0.000000 0.021521 0.999768
vn 0.000000 0.021479 -0.999769
vn 0.000000 0.021479 -0.999769
vn 0.000000 0.021479 -0.999769
vn 0.000000 0.021479 -0.999769
vn 0.000000 0.021479 -0.999769
vn 0.000000 0.021479 -0.999769
vn 0.999768 0.021521 0.000000
vn 0.999768 0.021521 0.000000
vn 0.999768 0.021521 0.000000
vn 0.999768 0.021521 0.000000
vn 0.999768 0.021521 0.000000
vn 0.999768 0.021521 0.000000
vn -0.999769 0.021479 0.000000
vn -0.999769 0.021479 0.000000
vn -0.999769 0.021479 0.000000
vn -0.999769 0.021479 0.000000
vn -0.999769 0.021479 0.000000
vn -0.999769 0.021479 0.000000
vn -0.942318 0.328443 -0.064516
vn -0.997569 0.068327 -0.013665
vn -0.942318 0.328443 -0.064516
vn -0.997569 0.068327 -0.013665
vn -0.974405 -0.220657 0.042960
vn -0.942318 0.328443 -0.064516
vn 0.925780 -0.371093 0.072265
vn 0.997701 -0.066383 0.013667
vn 0.925780 -0.371093 0.072265
vn 0.997701 -0.066383 0.013667
vn 0.957461 0.283330 -0.054712
vn 0.925780 -0.371093 0.072265
vn 0.818244 0.564373 -0.109360
vn 0.957461 0.283330 -0.054712
vn 0.818244 0.564373 -0.109360
vn 0.957461 0.283330 -0.054712
vn 0.997701 -0.066383 0.013667
vn 0.818244 0.564373 -0.109360
vn -0.877377 -0.470930 0.091841
vn -0.974405 -0.220657 0.042960
vn -0.877377 -0.470930 0.091841
vn -0.974405 -0.220657 0.042960
vn -0.997569 0.068327 -0.013665
vn -0.877377 -0.470930 0.091841
vn 0.000000 0.021521 0.999768
vn 0.000000 0.021521 0.999768
vn 0.000000 0.021521 0.999768
vn 0.000000 0.021521 0.999768
vn 0.000000 0.021521 0.999768
vn 0.000000 0.021521 0.999768
vn 0.000000 0.021479 -0.999769
vn 0.000000 0.021479 -0.999769
vn 0.000000 0.021479 -0.999769
vn 0.000000 0.021479 -0.999769
vn 0.000000 0.021479 -0.999769
vn 0.000000 0.021479 -0.999769
vn 0.999768 0.021521 0.000000
vn 0.999768 0.021521 0.000000
vn 0.999768 0.021521 0.000000
vn 0.999768 0.021521 0.000000
vn 0.999768 0.021521 0.000000
vn 0.999768 0.021521 0.000000
vn -0.999769 0.021479 0.000000
vn -0.999769 0.021479 0.000000
vn -0.999769 0.021479 0.000000
vn -0.999769 0.021479 0.000000
vn -0.999769 0.021479 0.000000
vn -0.999769 0.021479 0.000000
vn 0.000000 0.021521 0.999768
vn 0.000000 0.021521 0.999768
vn 0.000000 0.021521 0.999768
vn 0.000000 0.021521 0.999768
vn 0.000000 0.021521 0.999768
vn 0.000000 0.021521 0.999768
vn 0.000000 0.021479 -0.999769
vn 0.000000 0.021479 -0.999769
vn 0.000000 0.021479 -0.999769
vn 0.000000 0.021479 -0.999769
vn 0.000000 0.021479 -0.999769
vn 0.000000 0.021479 -0.999769
vn 0.999768 0.021521 0.000000
vn 0.999768 0.021521 0.000000
vn 0.999768 0.021521 0.000000
vn 0.999768 0.021521 0.000000
vn 0.999768 0.021521 0.000000
vn 0.999768 0.021521 0.000000
vn -0.999769 0.021479 0.000000
vn -0.999769 0.021479 0.000000
vn -0.999769 0.021479 0.000000
vn -0.999769 0.021479 0.000000
vn -0.999769 0.021479 0.000000
vn -0.999769 0.021479 0.000000
vn 0.000000 0.021521 0.999768
vn 0.000000 0.021521 0.999768
vn 0.000000 0.021521 0.999768
vn 0.000000 0.021521 0.999768
vn 0.000000 0.021521 0.999768
vn 0.000000 0.021521 0.999768
vn 0.000000 0.021479 -0.999769
vn 0.000000 0.021479 -0.999769
vn 0.000000 0.021479 -0.999769
vn 0.000000 0.021479 -0.999769
vn 0.000000 0.021479 -0.999769
vn 0.000000 0.021479 -0.999769
vn 0.999768 0.021521 0.000000
vn 0.999768 0.021521 0.000000
vn 0.999768 0.021521 0.000000
vn 0.999768 0.021521 0.000000
vn 0.999768 0.021521 0.000000
vn 0.999768 0.021521 0.000000
vn -0.999769 0.021479 0.000000
vn -0.999769 0.021479 0.000000
vn -0.999769 0.021479 0.000000
vn -0.999769 0.021479 0.000000
vn -0.999769 0.021479 0.000000
vn -0.999769 0.021479 0.000000
vn -0.431929 0.885357 -0.171990
vn 0.000000 0.981544 -0.191235
vn -0.431929 0.885357 -0.171990
vn 0.000000 -0.190832 -0.981623
vn 0.000000 -0.190832 -0.981623
vn 0.000000 -0.190832 -0.981623
vn 0.000000 -0.191235 -0.981544
vn 0.000000 -0.191235 -0.981544
vn 0.000000 -0.191235 -0.981544
vn 0.000000 -0.191235 -0.981544
vn 0.000000 -0.191235 -0.981544
vn 0.000000 -0.191235 -0.981544
vn 0.000000 -0.191235 -0.981544
vn 0.000000 -0.191235 -0.981544
vn 0.000000 -0.191235 -0.981544
vn 0.000000 -0.191235 -0.981544
vn 0.000000 -0.191235 -0.981544
vn 0.000000 -0.191235 -0.981544
vn 0.000000 0.191235 0.981544
vn 0.000000 0.191235 0.981544
vn 0.000000 0.191235 0.981544
vn 0.000000 0.191235 0.981544
vn 0.000000 0.191235 0.981544
vn 0.000000 0.191235 0.981544
vn 0.000000 0.191235 0.981544
vn 0.000000 0.191235 0.981544
vn 0.000000 0.191235 0.981544
vn 0.000000 0.191235 0.981544
vn 0.000000 0.191235 0.981544
vn 0.000000 0.191235 0.981544
vn 0.000000 0.191235 0.981544
vn 0.000000 0.191235 0.981544
vn 0.000000 0.191235 0.981544
vn 0.000000 0.191235 0.981544
vn 0.000000 0.191235 0.981544
vn 0.000000 0.191235 0.981544
vn 0.000000 0.191235 0.981544
vn 0.000000 0.191235 0.981544
vn 0.000000 0.191235 0.981544
vn 0.000000 0.191235 0.981544
vn 0.000000 0.191235 0.981544
vn 0.000000 0.191235 0.981544
vn 0.000000 0.191235 0.981544
vn 0.000000 0.191235 0.981544
vn 0.000000 0.191235 0.981544
vn 0.000000 0.191235 0.981544
vn 0.000000 0.191235 0.981544
vn 0.000000 0.191235 0.981544
vn 0.000000 -0.191235 -0.981544
vn 0.000000 -0.191235 -0.981544
vn 0.000000 -0.191235 -0.981544
vn 0.000000 -0.191235 -0.981544
vn 0.000000 -0.191235 -0.981544
vn 0.000000 -0.191235 -0.981544
vn 0.000000 0.191235 0.981544
vn 0.000000 0.191235 0.981544
vn 0.000000 0.191235 0.981544
vn 0.000000 0.191235 0.981544
vn 0.000000 0.191235 0.981544
vn 0.000000 0.191235 0.981544
vn 0.000000 -0.191235 -0.981544
vn 0.000000 -0.191235 -0.981544
vn 0.000000 -0.191235 -0.981544
vn 0.000000 -0.191235 -0.981544
vn 0.000000 -0.191235 -0.981544
vn 0.000000 -0.191235 -0.981544
vn 0.000000 -0.191235 -0.981544
vn 0.000000 -0.191235 -0.981544
vn 0.000000 -0.191235 -0.981544
vn 0.000000 -0.191235 -0.981544
vn 0.000000 -0.191235 -0.981544
vn 0.000000 -0.191235 -0.981544
vn 0.000000 -0.191235 -0.981544
vn 0.000000 -0.191235 -0.981544
vn 0.000000 -0.191235 -0.981544
vn 0.000000 -0.254757 0.967005
vn 0.000000 -0.254757 0.967005
vn 0.000000 -0.254757 0.967005
vn 0.000000 -0.255839 0.966719
vn 0.000000 -0.255839 0.966719
vn 0.000000 -0.255839 0.966719
vn 0.000000 1.000000 0.000000
vn 0.000000 1.000000 0.000000
vn 0.000000 1.000000 0.000000
vn 0.000000 1.000000 0.000000
vn 0.000000 1.000000 0.000000
vn 0.000000 1.000000 0.000000
vn 0.000000 -0.259973 -0.965616
vn 0.000000 -0.259973 -0.965616
vn 0.000000 -0.259973 -0.965616
vn 0.000000 -0.259973 -0.965616
vn 0.000000 -0.259973 -0.965616
vn 0.000000 -0.259973 -0.965616
vn 0.970257 -0.242076 0.000000
vn 0.970257 -0.242076 0.000000
vn 0.970257 -0.242076 0.000000
vn 0.970257 -0.242076 0.000000
vn 0.970257 -0.242076 0.000000
vn 0.970257 -0.242076 0.000000
vn -0.970257 -0.242076 0.000000
vn -0.970257 -0.242076 0.000000
vn -0.970257 -0.242076 0.000000
vn -0.970257 -0.242076 0.000000
vn -0.970257 -0.242076 0.000000
vn -0.970257 -0.242076 0.000000
vn 0.000000 -0.255839 0.966719
vn 0.000000 -0.255839 0.966719
vn 0.000000 -0.255839 0.966719
vn 0.000000 -0.255839 0.966719
vn 0.000000 -0.255839 0.966719
vn 0.000000 -0.255839 0.966719
vn 0.000000 -0.259973 -0.965616
vn 0.000000 -0.259973 -0.965616
vn 0.000000 -0.259973 -0.965616
vn 0.000000 -0.259973 -0.965616
vn 0.000000 -0.259973 -0.965616
vn 0.000000 -0.259973 -0.965616
vn 0.970257 -0.242076 0.000000
vn 0.970257 -0.242076 0.000000
vn 0.970257 -0.242076 0.000000
vn 0.970257 -0.242076 0.000000
vn 0.970257 -0.242076 0.000000
vn 0.970257 -0.242076 0.000000
vn -0.970257 -0.242076 0.000000
vn -0.970257 -0.242076 0.000000
vn -0.970257 -0.242076 0.000000
vn -0.970257 -0.242076 0.000000
vn -0.970257 -0.242076 0.000000
vn -0.970257 -0.242076 0.000000
vn 0.000000 0.179572 0.983745
vn 0.000000 0.179572 0.983745
vn 0.000000 0.179572 0.983745
vn 0.000000 0.179572 0.983745
vn 0.000000 0.179572 0.983745
vn 0.000000 0.179572 0.983745
vn 0.000000 0.179572 0.983745
vn 0.000000 0.179572 0.983745
vn 0.000000 0.179572 0.983745
vn 0.000000 0.179572 0.983745
vn 0.000000 0.179572 0.983745
vn 0.000000 0.179572 0.983745
s off
g initialShadingGroup initialShadingGrouppolygon4
f 1/1/1 2/2/2 3/3/3
f 2/2/4 4/4/5 3/3/6
f 3/3/7 4/4/8 5/5/9
f 4/4/10 6/6/11 5/5/12
f 7/7/13 8/8/14 9/9/15
f 8/8/16 10/10/17 9/9/18
f 9/9/19 10/10/20 11/11/21
f 10/10/22 12/12/23 11/11/24
f 13/13/25 14/14/26 15/15/27
f 14/14/28 16/16/29 15/15/30
f 15/15/31 16/16/32 17/17/33
f 18/18/34 19/19/35 20/20/36
f 19/19/37 21/21/38 20/20/39
f 22/22/40 23/23/41 24/24/42
f 23/23/43 25/25/44 24/24/45
f 26/26/46 27/27/47 28/28/48
f 27/27/49 29/29/50 28/28/51
f 30/30/52 31/31/53 32/32/54
f 31/31/55 33/33/56 32/32/57
f 34/34/58 35/35/59 36/36/60
f 35/35/61 37/37/62 36/36/63
f 38/38/64 39/39/65 40/40/66
f 39/39/67 41/41/68 40/40/69
f 42/42/70 43/43/71 44/44/72
f 43/43/73 45/45/74 44/44/75
f 46/46/76 47/47/77 48/48/78
f 47/47/79 49/49/80 48/48/81
f 50/50/82 51/51/83 52/52/84
f 51/51/85 53/53/86 52/52/87
f 54/54/88 55/55/89 56/56/90
f 55/55/91 57/57/92 56/56/93
f 58/58/94 59/59/95 60/60/96
f 59/59/97 61/61/98 60/60/99
f 62/62/100 63/63/101 64/64/102
f 63/63/103 65/65/104 64/64/105
f 66/66/106 67/67/107 68/68/108
f 67/67/109 69/69/110 68/68/111
f 70/70/112 71/71/113 72/72/114
f 71/71/115 73/73/116 72/72/117
f 74/74/118 75/75/119 76/76/120
f 75/75/121 77/77/122 76/76/123
f 78/78/124 79/79/125 80/80/126
f 79/79/127 81/81/128 80/80/129
f 82/82/130 83/83/131 84/84/132
f 83/83/133 85/85/134 84/84/135
f 86/86/136 87/87/137 88/88/138
f 87/87/139 89/89/140 88/88/141
f 90/90/142 91/91/143 92/92/144
f 91/91/145 93/93/146 92/92/147
f 94/94/148 95/95/149 96/96/150
f 95/95/151 97/97/152 96/96/153
f 98/98/154 99/99/155 100/100/156
f 101/101/157 102/102/158 103/103/159
f 102/102/160 104/104/161 103/103/162
f 103/103/163 104/104/164 105/105/165
f 104/104/166 106/106/167 105/105/168
f 105/105/169 106/106/170 107/107/171
f 108/108/172 109/109/173 110/110/174
f 109/109/175 111/111/176 110/110/177
f 110/110/178 111/111/179 112/112/180
f 111/111/181 113/113/182 112/112/183
f 112/112/184 113/113/185 114/114/186
f 115/115/187 116/116/188 117/117/189
f 116/116/190 118/118/191 117/117/192
f 117/117/193 118/118/194 119/119/195
f 120/120/196 121/121/197 122/122/198
f 121/121/199 123/123/200 122/122/201
f 124/124/202 125/125/203 126/126/204
f 125/125/205 127/127/206 126/126/207
f 128/128/208 129/129/209 130/130/210
f 129/129/211 131/131/212 130/130/213
f 132/132/214 133/133/215 134/134/216
f 133/133/217 135/135/218 134/134/219
f 136/136/220 137/137/221 138/138/222
f 137/137/223 139/139/224 138/138/225
f 140/140/226 141/141/227 142/142/228
f 143/143/229 144/144/230 145/145/231
f 144/144/232 146/146/233 145/145/234
f 147/147/235 148/148/236 149/149/237
f 148/148/238 150/150/239 149/149/240
f 151/151/241 152/152/242 153/153/243
f 152/152/244 154/154/245 153/153/246
f 155/155/247 156/156/248 157/157/249
f 156/156/250 158/158/251 157/157/252
f 159/159/253 160/160/254 161/161/255
f 160/160/256 162/162/257 161/161/258
f 163/163/259 164/164/260 165/165/261
f 164/164/262 166/166/263 165/165/264
f 167/167/265 168/168/266 169/169/267
f 168/168/268 170/170/269 169/169/270
f 171/171/271 172/172/272 173/173/273
f 172/172/274 174/174/275 173/173/276
f 175/175/277 176/176/278 177/177/279
f 176/176/280 178/178/281 177/177/282
f 179/179/283 180/180/284 181/181/285
f 180/180/286 182/182/287 181/181/288
f 183/183/289 184/184/290 185/185/291
f 184/184/292 186/186/293 185/185/294
